<!--?xml version="1.0" encoding="utf-8"?-->
<!-- Generator: Adobe Illustrator 18.1.1, SVG Export Plug-In . SVG Version: 6.00 Build 0)  -->

<svg version="1.1" id="_x31_0" xmlns="http://www.w3.org/2000/svg" xmlns:xlink="http://www.w3.org/1999/xlink" x="0px" y="0px" viewBox="0 0 512 512" style="width: 48px; height: 48px; opacity: 1;" xml:space="preserve">
<style type="text/css">
	.st0{fill:#374149;}
</style>
<g>
	<path class="st0" d="M256,0C114.562,0,0,114.641,0,256c0,141.438,114.562,256,256,256c141.359,0,256-114.562,256-256
		C512,114.641,397.359,0,256,0z M373.762,210.078c4.801,0,9.598,2,13.039,5.523c3.199,3.195,4.961,7.274,4.879,11.594
		c0,5.203-2.398,10.086-6.719,13.367l-7.652,5.778l-3.066,2.238l0.058,0.035l-0.141,0.105l11.84,6.719
		c5.282,2.961,8.562,8.718,8.562,14.805c0,7.438-4.801,13.914-11.844,16.156l-8.968,2.77l-3.059,0.89l0.031,0.047l-0.16,0.05
		l7.68,10.242c2.16,2.961,3.359,6.477,3.359,10.164c0,8.234-5.922,15.274-14.16,16.633l-9.207,1.59l-2.73,0.422l0.023,0.043
		l-0.168,0.031l5.602,10.961c1.282,2.476,2,5.039,2,7.758c0,8.875-6.961,16.242-15.679,16.875l-111.762,0.086
		c-0.066-0.078-9.726-0.218-18.347-5.492c-0.219-0.133-0.43-0.293-0.649-0.434c-1.078-0.699-2.148-1.442-3.164-2.317
		c-2.32-1.922-4.48-3.281-6.718-4.32l-1.039-0.477V251.359l11.199-9.523l35.762-72c1.84-3.118,3.199-6.477,4-9.836
		c0.879-3.438,1.118-7.125,0.879-10.883l-2.961-39.281c2-0.961,4.238-1.359,6.398-1.359c15.363,0,32.801,25.039,32.801,45.766
		c0,2.953-0.238,5.914-0.719,8.797l-6.246,40.816l-0.954,6.059h0.023l-0.023,0.164H373.762z M117.359,373.516V237.195h70.321
		v136.321h-70.262H117.359z" style="fill: rgb(58, 171, 210);"></path>
</g>
</svg>
